<?xml version="1.0" encoding="utf-8"?>
<!-- Generator: Adobe Illustrator 16.0.0, SVG Export Plug-In . SVG Version: 6.00 Build 0)  -->
<!DOCTYPE svg PUBLIC "-//W3C//DTD SVG 1.1//EN" "http://www.w3.org/Graphics/SVG/1.1/DTD/svg11.dtd">
<svg version="1.1" id="Capa_1" xmlns="http://www.w3.org/2000/svg" xmlns:xlink="http://www.w3.org/1999/xlink" x="0px" y="0px"
	 width="80px" height="80px" viewBox="0 0 80 80" enable-background="new 0 0 80 80" xml:space="preserve">
<circle fill="#2B73AB" cx="40" cy="40" r="39.334"/>
<path fill="#FFFFFF" d="M33.696,61.684v-19.28h-4.284v-8.568h4.284v-5.974c0-4.977,3.717-9.546,11.13-9.546
	c3.001,0,5.473,0.289,5.473,0.289l-0.048,6.921c0,0-2.341-0.02-4.811-0.02c-2.673,0-3.174,1.232-3.174,3.278v5.051h8.322
	l-0.35,8.568h-7.973v19.28H33.696z"/>
<circle fill="none" stroke="#5D5D5D" stroke-width="2" stroke-miterlimit="10" cx="1196.039" cy="-100.257" r="22.216"/>
<g>
	<path fill="#5D5D5D" d="M1204.952-106.891h-1.492v-5.805c0-0.497-0.414-0.829-0.829-0.829h-13.267c-0.415,0-0.83,0.332-0.83,0.829
		v5.805h-1.492c-2.404,0-4.312,1.99-4.312,4.312v7.048c0,2.405,1.907,4.395,4.312,4.395h1.492v3.317c0,0.497,0.415,0.829,0.83,0.829
		h13.267c0.415,0,0.829-0.332,0.829-0.829v-3.317h1.492c2.404,0,4.395-1.989,4.395-4.395v-7.048
		C1209.264-104.983,1207.356-106.891,1204.952-106.891z M1190.192-111.865h11.609v4.975h-11.609V-111.865z M1201.801-88.648h-11.609
		v-5.805h11.609V-88.648z M1207.606-95.531c0,1.493-1.244,2.736-2.736,2.736h-1.493v-1.658h1.658c0.415,0,0.829-0.331,0.829-0.829
		c0-0.497-0.414-0.829-0.829-0.829h-18.241c-0.415,0-0.83,0.332-0.83,0.829c0,0.498,0.415,0.829,0.83,0.829h1.658v1.658h-1.41
		c-1.492,0-2.653-1.243-2.653-2.736v-7.048c0-1.492,1.243-2.653,2.653-2.653h17.828c1.492,0,2.736,1.161,2.736,2.653V-95.531
		L1207.606-95.531z"/>
	<path fill="#5D5D5D" d="M1203.459-103.574c-1.41,0-2.488,1.078-2.488,2.488c0,1.409,1.078,2.487,2.488,2.487
		s2.488-1.078,2.488-2.487C1205.948-102.496,1204.87-103.574,1203.459-103.574z M1203.459-100.257c-0.498,0-0.829-0.332-0.829-0.829
		c0-0.498,0.331-0.83,0.829-0.83s0.829,0.332,0.829,0.83C1204.289-100.589,1203.874-100.257,1203.459-100.257z"/>
	<path fill="#5D5D5D" d="M1192.68-90.722h6.633c0.498,0,0.83-0.332,0.83-0.829s-0.332-0.829-0.83-0.829h-6.633
		c-0.498,0-0.829,0.332-0.829,0.829S1192.182-90.722,1192.68-90.722z"/>
</g>
</svg>
