<?xml version="1.0" encoding="utf-8"?>
<!-- Generator: Adobe Illustrator 19.2.1, SVG Export Plug-In . SVG Version: 6.00 Build 0)  -->
<svg version="1.1" id="Capa_1" xmlns="http://www.w3.org/2000/svg" xmlns:xlink="http://www.w3.org/1999/xlink" x="0px" y="0px"
	 viewBox="0 0 80 80" style="enable-background:new 0 0 80 80;" xml:space="preserve">
<style type="text/css">
	.st0{fill:#5D5D5D;}
	.st1{fill:none;stroke:#5D5D5D;stroke-width:2;stroke-miterlimit:10;}
</style>
<g>
	<path class="st0" d="M40,0.7C18.3,0.7,0.7,18.3,0.7,40S18.3,79.3,40,79.3S79.3,61.7,79.3,40S61.7,0.7,40,0.7z M40,76.1
		C20.1,76.1,3.9,59.9,3.9,40S20.1,3.9,40,3.9c19.9,0,36.1,16.2,36.1,36.1S59.9,76.1,40,76.1z"/>
	<g>
		<path class="st0" d="M55.8,28.3h-2.6V18c0-0.9-0.7-1.5-1.5-1.5H28.2c-0.7,0-1.5,0.6-1.5,1.5v10.3h-2.6c-4.3,0-7.6,3.5-7.6,7.6
			v12.5c0,4.3,3.4,7.8,7.6,7.8h2.6V62c0,0.9,0.7,1.5,1.5,1.5h23.5c0.7,0,1.5-0.6,1.5-1.5v-5.9h2.6c4.3,0,7.8-3.5,7.8-7.8V35.9
			C63.4,31.6,60,28.3,55.8,28.3z M29.6,19.4h20.6v8.8H29.6V19.4z M50.2,60.6H29.6V50.3h20.6C50.2,50.3,50.2,60.6,50.2,60.6z
			 M60.5,48.4c0,2.6-2.2,4.8-4.8,4.8H53v-2.9h2.9c0.7,0,1.5-0.6,1.5-1.5c0-0.9-0.7-1.5-1.5-1.5H23.6c-0.7,0-1.5,0.6-1.5,1.5
			c0,0.9,0.7,1.5,1.5,1.5h2.9v2.9h-2.5c-2.6,0-4.7-2.2-4.7-4.8V35.9c0-2.6,2.2-4.7,4.7-4.7h31.6c2.6,0,4.8,2.1,4.8,4.7V48.4
			L60.5,48.4z"/>
		<path class="st0" d="M53.1,34.1c-2.5,0-4.4,1.9-4.4,4.4s1.9,4.4,4.4,4.4c2.5,0,4.4-1.9,4.4-4.4C57.5,36,55.6,34.1,53.1,34.1z
			 M53.1,40c-0.9,0-1.5-0.6-1.5-1.5c0-0.9,0.6-1.5,1.5-1.5c0.9,0,1.5,0.6,1.5,1.5C54.6,39.4,53.9,40,53.1,40z"/>
		<path class="st0" d="M34.1,56.9h11.7c0.9,0,1.5-0.6,1.5-1.5c0-0.9-0.6-1.5-1.5-1.5H34.1c-0.9,0-1.5,0.6-1.5,1.5
			C32.6,56.3,33.2,56.9,34.1,56.9z"/>
	</g>
</g>
<circle class="st1" cx="1033" cy="-100.3" r="22.2"/>
<g>
	<path class="st0" d="M1042-106.9h-1.5v-5.8c0-0.5-0.4-0.8-0.8-0.8h-13.3c-0.4,0-0.8,0.3-0.8,0.8v5.8h-1.5c-2.4,0-4.3,2-4.3,4.3v7
		c0,2.4,1.9,4.4,4.3,4.4h1.5v3.3c0,0.5,0.4,0.8,0.8,0.8h13.3c0.4,0,0.8-0.3,0.8-0.8v-3.3h1.5c2.4,0,4.4-2,4.4-4.4v-7
		C1046.3-105,1044.4-106.9,1042-106.9z M1027.2-111.9h11.6v5h-11.6V-111.9z M1038.8-88.6h-11.6v-5.8h11.6V-88.6z M1044.6-95.5
		c0,1.5-1.2,2.7-2.7,2.7h-1.5v-1.7h1.7c0.4,0,0.8-0.3,0.8-0.8c0-0.5-0.4-0.8-0.8-0.8h-18.2c-0.4,0-0.8,0.3-0.8,0.8
		c0,0.5,0.4,0.8,0.8,0.8h1.7v1.7h-1.4c-1.5,0-2.7-1.2-2.7-2.7v-7c0-1.5,1.2-2.7,2.7-2.7h17.8c1.5,0,2.7,1.2,2.7,2.7L1044.6-95.5
		L1044.6-95.5z"/>
	<path class="st0" d="M1040.5-103.6c-1.4,0-2.5,1.1-2.5,2.5c0,1.4,1.1,2.5,2.5,2.5s2.5-1.1,2.5-2.5
		C1042.9-102.5,1041.9-103.6,1040.5-103.6z M1040.5-100.3c-0.5,0-0.8-0.3-0.8-0.8c0-0.5,0.3-0.8,0.8-0.8s0.8,0.3,0.8,0.8
		C1041.3-100.6,1040.9-100.3,1040.5-100.3z"/>
	<path class="st0" d="M1029.7-90.7h6.6c0.5,0,0.8-0.3,0.8-0.8s-0.3-0.8-0.8-0.8h-6.6c-0.5,0-0.8,0.3-0.8,0.8
		S1029.2-90.7,1029.7-90.7z"/>
</g>
</svg>
