<?xml version="1.0" encoding="utf-8"?>
<!-- Generator: Adobe Illustrator 16.0.0, SVG Export Plug-In . SVG Version: 6.00 Build 0)  -->
<!DOCTYPE svg PUBLIC "-//W3C//DTD SVG 1.1//EN" "http://www.w3.org/Graphics/SVG/1.1/DTD/svg11.dtd">
<svg version="1.1" id="Capa_1" xmlns="http://www.w3.org/2000/svg" xmlns:xlink="http://www.w3.org/1999/xlink" x="0px" y="0px"
	 width="80px" height="80px" viewBox="0 0 80 80" enable-background="new 0 0 80 80" xml:space="preserve">
<circle fill="#58B8F9" cx="40" cy="40" r="39.333"/>
<path fill-rule="evenodd" clip-rule="evenodd" fill="#FFFFFF" d="M39.123,35.19c1.629-5.085,3.62-8.379,5.912-10.767
	c1.709-1.784,2.592-2.35,1.586-0.389c0.443-0.353,1.082-0.826,1.575-1.08c2.772-1.305,2.577-0.21,0.67,0.966
	c5.211-1.864,5.029,0.508-0.482,1.692c4.507,0.083,9.3,2.954,10.676,9.053c0.193,0.846-0.036,0.766,0.83,0.918
	c1.865,0.33,3.622,0.31,5.334-0.233c-0.186,1.26-1.851,2.08-4.45,2.623c-0.969,0.199-1.165,0.15-0.008,0.407
	c1.422,0.322,3.013,0.404,4.695,0.326c-1.311,1.508-3.4,2.278-5.984,2.309c-1.613,5.902-5.308,10.127-9.98,12.78
	c-10.973,6.229-26.947,5.324-34.956-5.995c5.256,4.125,13.043,5.034,18.824-0.715c-3.789,0-4.771-2.837-1.765-4.367
	c-2.845-0.029-4.651-0.93-5.713-2.559c-0.403-0.62-0.407-0.666,0.251-1.141c0.719-0.524,1.703-0.754,2.723-0.834
	c-2.944-0.841-4.744-2.378-5.365-4.443c-0.209-0.68-0.24-0.648,0.453-0.822c0.679-0.171,1.555-0.264,2.335-0.304
	c-2.31-1.401-3.689-3.12-4.044-5.02c-0.332-1.793,0.01-1.333,1.352-0.82C29.593,29.073,35.578,31.539,39.123,35.19"/>
<circle fill="none" stroke="#5D5D5D" stroke-width="2" stroke-miterlimit="10" cx="1033.039" cy="-100.257" r="22.216"/>
<g>
	<path fill="#5D5D5D" d="M1041.952-106.891h-1.492v-5.805c0-0.497-0.414-0.829-0.829-0.829h-13.267c-0.415,0-0.83,0.332-0.83,0.829
		v5.805h-1.492c-2.404,0-4.312,1.99-4.312,4.312v7.048c0,2.405,1.907,4.395,4.312,4.395h1.492v3.317c0,0.497,0.415,0.829,0.83,0.829
		h13.267c0.415,0,0.829-0.332,0.829-0.829v-3.317h1.492c2.404,0,4.395-1.989,4.395-4.395v-7.048
		C1046.264-104.983,1044.356-106.891,1041.952-106.891z M1027.192-111.865h11.609v4.975h-11.609V-111.865z M1038.801-88.648h-11.609
		v-5.805h11.609V-88.648z M1044.606-95.531c0,1.493-1.244,2.736-2.736,2.736h-1.493v-1.658h1.658c0.415,0,0.829-0.331,0.829-0.829
		c0-0.497-0.414-0.829-0.829-0.829h-18.241c-0.415,0-0.83,0.332-0.83,0.829c0,0.498,0.415,0.829,0.83,0.829h1.658v1.658h-1.41
		c-1.492,0-2.653-1.243-2.653-2.736v-7.048c0-1.492,1.243-2.653,2.653-2.653h17.828c1.492,0,2.736,1.161,2.736,2.653V-95.531
		L1044.606-95.531z"/>
	<path fill="#5D5D5D" d="M1040.459-103.574c-1.41,0-2.488,1.078-2.488,2.488c0,1.409,1.078,2.487,2.488,2.487
		s2.488-1.078,2.488-2.487C1042.948-102.496,1041.87-103.574,1040.459-103.574z M1040.459-100.257c-0.498,0-0.829-0.332-0.829-0.829
		c0-0.498,0.331-0.83,0.829-0.83s0.829,0.332,0.829,0.83C1041.289-100.589,1040.874-100.257,1040.459-100.257z"/>
	<path fill="#5D5D5D" d="M1029.68-90.722h6.633c0.498,0,0.83-0.332,0.83-0.829s-0.332-0.829-0.83-0.829h-6.633
		c-0.498,0-0.829,0.332-0.829,0.829S1029.182-90.722,1029.68-90.722z"/>
</g>
</svg>
